<svg width="390" height="294" viewBox="0 0 390 294" fill="none" xmlns="http://www.w3.org/2000/svg">
<rect width="390" height="293" fill="#D6D6D6"/>
<path d="M224.178 199.544H159.459C158.55 199.544 157.813 198.807 157.813 197.902C157.813 196.992 158.55 196.255 159.459 196.255H224.178C225.087 196.255 225.824 196.992 225.824 197.902C225.824 198.807 225.087 199.544 224.178 199.544Z" fill="#5D7192"/>
<path d="M281 292.794H109V275.463C109 236.323 140.726 204.598 179.863 204.598H210.139C249.276 204.598 281 236.323 281 275.463V292.794Z" fill="#FBFDFF"/>
<path d="M215.95 168.184V219.353C215.95 220.788 215.875 222.208 215.729 223.589C214.266 237.791 205.541 248.7 194.999 248.7C183.428 248.7 174.048 235.558 174.048 219.353V168.184H215.95Z" fill="#FFB7A4"/>
<path d="M215.95 169.808V204.713C215.95 205.74 215.875 206.751 215.729 207.739C198.04 202.466 184.181 193.775 174.048 185.454V168.183H200.672L215.95 169.808Z" fill="#F2967B"/>
<path d="M243.813 134.065C243.813 165.265 221.959 190.557 195 190.557C168.041 190.557 146.185 165.265 146.185 134.065C146.185 102.865 168.041 77.5726 195 77.5726C221.959 77.5726 243.813 102.865 243.813 134.065Z" fill="#FFB7A4"/>
<path d="M177.01 107.191C204.842 100.731 214.174 80.3735 197.315 68.1445C186.38 60.2092 166.955 66.0115 152.44 82.9928C137.925 99.9741 136.026 125.178 146.295 133.953C156.565 142.734 149.587 113.551 177.01 107.191Z" fill="#070739"/>
<path d="M241.492 86.3814C227.474 70.3993 208.425 64.1825 198.947 72.4954C189.466 80.8083 158.362 96.8785 214.543 109.175C235.196 113.691 236.675 140.567 246.153 132.254C255.631 123.941 255.511 102.364 241.492 86.3814Z" fill="#070739"/>
<path d="M151.212 136.094C153.13 140.06 152.403 144.378 149.589 145.734C146.778 147.095 142.945 144.979 141.027 141.008C139.112 137.042 139.838 132.724 142.649 131.363C145.464 130.007 149.297 132.123 151.212 136.094Z" fill="#FFB7A4"/>
<path d="M238.811 136.094C236.897 140.06 237.623 144.378 240.434 145.734C243.248 147.095 247.082 144.979 248.997 141.008C250.911 137.042 250.184 132.724 247.374 131.363C244.56 130.007 240.726 132.123 238.811 136.094Z" fill="#FFB7A4"/>
<path d="M215.952 205.698V230.722C215.952 233.265 215.877 235.775 215.731 238.225C214.267 263.375 205.543 282.701 195.001 282.701C183.43 282.701 174.05 259.426 174.05 230.722V204.598L195.001 241.9L215.952 205.698Z" fill="#689FFF"/>
<path d="M197.068 287.889C196.523 285.912 195.835 283.406 195.037 280.511C188.364 256.271 174.131 204.598 174.05 204.598L156.828 229.609L167.796 235.752L149.752 248.693L193.005 287.889L195.037 289.731L197.068 287.889Z" fill="#C8DCFA"/>
<path d="M240.32 248.693L197.068 287.889L195.036 289.731L193.004 287.889C193.55 285.912 194.238 283.406 195.036 280.511C201.706 256.271 215.938 204.598 216.023 204.598L233.245 229.609L222.274 235.752L240.32 248.693Z" fill="#C8DCFA"/>
<path d="M245.678 117.501C239.962 129.344 216.917 130.02 194.204 119.051C171.494 108.082 157.716 89.5964 163.431 77.7596C169.15 65.9228 192.195 65.2139 214.905 76.1824C237.615 87.1455 251.394 105.665 245.678 117.501Z" fill="#070739"/>
<path d="M181.725 270.964H170.303C169.394 270.964 168.657 270.228 168.657 269.319C168.657 268.41 169.394 267.675 170.303 267.675H180.079V240.837C180.079 229.142 170.829 219.627 159.459 219.627C148.086 219.627 138.836 229.142 138.836 240.837V267.675H149.647C150.556 267.675 151.293 268.41 151.293 269.319C151.293 270.228 150.556 270.964 149.647 270.964H137.19C136.282 270.964 135.545 270.228 135.545 269.319V240.837C135.545 227.329 146.272 216.338 159.459 216.338C172.643 216.338 183.37 227.329 183.37 240.837V269.319C183.37 270.228 182.634 270.964 181.725 270.964Z" fill="#5D7192"/>
<path d="M196.609 293H194.415V280.718H196.609V293Z" fill="#C8DCFA"/>
<path d="M152.876 269.323C152.876 271.139 151.993 272.614 150.903 272.614C149.812 272.614 148.926 271.139 148.926 269.323C148.926 267.507 149.812 266.032 150.903 266.032C151.993 266.032 152.876 267.507 152.876 269.323Z" fill="#070739"/>
<path d="M171.304 269.323C171.304 271.139 170.418 272.614 169.328 272.614C168.237 272.614 167.354 271.139 167.354 269.323C167.354 267.507 168.237 266.032 169.328 266.032C170.418 266.032 171.304 267.507 171.304 269.323Z" fill="#070739"/>
<path d="M159.459 219.628C158.551 219.628 157.814 218.891 157.814 217.982V198.129C157.814 197.219 158.551 196.483 159.459 196.483C160.368 196.483 161.105 197.219 161.105 198.129V217.982C161.105 218.891 160.368 219.628 159.459 219.628Z" fill="#5D7192"/>
<path d="M224.179 246.834C223.27 246.834 222.534 246.097 222.534 245.188V198.129C222.534 197.219 223.27 196.483 224.179 196.483C225.088 196.483 225.825 197.219 225.825 198.129V245.188C225.825 246.097 225.088 246.834 224.179 246.834Z" fill="#5D7192"/>
<path d="M214.305 255.058C214.305 249.609 218.725 245.187 224.178 245.187C229.631 245.187 234.049 249.609 234.049 255.058C234.049 260.512 229.631 264.934 224.178 264.934C218.725 264.934 214.305 260.512 214.305 255.058Z" fill="#5D7192"/>
<path d="M220.449 255.061C220.449 253.001 222.117 251.33 224.178 251.33C226.236 251.33 227.908 253.001 227.908 255.061C227.908 257.12 226.236 258.787 224.178 258.787C222.117 258.787 220.449 257.12 220.449 255.061Z" fill="#070739"/>
</svg>
