<svg width="93" height="93" viewBox="0 0 93 93" fill="none" xmlns="http://www.w3.org/2000/svg">
<rect width="93" height="93" rx="8" fill="#D6D6D6"/>
<path d="M55.9526 62.4092H34.7682C34.4706 62.4092 34.2295 62.1681 34.2295 61.8717C34.2295 61.5738 34.4706 61.3327 34.7682 61.3327H55.9526C56.25 61.3327 56.4913 61.5738 56.4913 61.8717C56.4913 62.1681 56.25 62.4092 55.9526 62.4092Z" fill="#5D7192"/>
<path d="M74.5523 92.9326H18.252V87.2597C18.252 74.4482 28.6366 64.0639 41.4473 64.0639H51.3575C64.1681 64.0639 74.5523 74.4482 74.5523 87.2597V92.9326Z" fill="#FBFDFF"/>
<path d="M53.2596 52.1439V68.8931C53.2596 69.3627 53.2352 69.8275 53.1875 70.2797C52.7083 74.9282 49.8524 78.499 46.4018 78.499C42.6144 78.499 39.5439 74.1975 39.5439 68.8931V52.1439H53.2596Z" fill="#FFB7A4"/>
<path d="M53.2596 52.676V64.1016C53.2596 64.4375 53.2352 64.7686 53.1875 65.0918C47.3973 63.3661 42.8608 60.5212 39.5439 57.7974V52.1443H48.2589L53.2596 52.676Z" fill="#F2967B"/>
<path d="M62.3802 40.9763C62.3802 51.1888 55.227 59.4678 46.4025 59.4678C37.5781 59.4678 30.4238 51.1888 30.4238 40.9763C30.4238 30.7638 37.5781 22.4848 46.4025 22.4848C55.227 22.4848 62.3802 30.7638 62.3802 40.9763Z" fill="#FFB7A4"/>
<path d="M40.5132 32.1799C49.6234 30.0654 52.6779 23.4018 47.1596 19.3989C43.5804 16.8015 37.2219 18.7007 32.4707 24.2592C27.7195 29.8176 27.0982 38.0676 30.4595 40.94C33.821 43.8141 31.5368 34.2619 40.5132 32.1799Z" fill="#070739"/>
<path d="M61.6205 25.3683C57.032 20.1369 50.7966 18.102 47.6943 20.823C44.591 23.5441 34.4098 28.8043 52.7993 32.8291C59.5594 34.3076 60.0438 43.1046 63.1461 40.3836C66.2484 37.6625 66.2091 30.5997 61.6205 25.3683Z" fill="#070739"/>
<path d="M32.0695 41.6402C32.6974 42.9384 32.4595 44.3517 31.5384 44.7956C30.6183 45.2411 29.3636 44.5486 28.7357 43.2487C28.109 41.9505 28.3468 40.5372 29.2669 40.0917C30.1881 39.6478 31.4428 40.3403 32.0695 41.6402Z" fill="#FFB7A4"/>
<path d="M60.7425 41.6402C60.1158 42.9384 60.3537 44.3517 61.2738 44.7956C62.1949 45.2411 63.4497 44.5486 64.0765 43.2487C64.7032 41.9505 64.4652 40.5372 63.5453 40.0917C62.6241 39.6478 61.3694 40.3403 60.7425 41.6402Z" fill="#FFB7A4"/>
<path d="M53.2607 64.4236V72.6148C53.2607 73.4471 53.2363 74.2688 53.1884 75.0708C52.7092 83.3029 49.8535 89.6289 46.4028 89.6289C42.6153 89.6289 39.5449 82.0104 39.5449 72.6148V64.0637L46.4028 76.2737L53.2607 64.4236Z" fill="#689FFF"/>
<path d="M47.0787 91.3267C46.9002 90.6797 46.6749 89.8595 46.4137 88.9117C44.2293 80.9773 39.5707 64.0634 39.5441 64.0634L33.9069 72.25L37.4969 74.2609L31.5908 78.497L45.7486 91.3267L46.4137 91.9297L47.0787 91.3267Z" fill="#C8DCFA"/>
<path d="M61.2369 78.497L47.0791 91.3267L46.4141 91.9297L45.749 91.3267C45.9275 90.6797 46.1527 89.8595 46.4141 88.9117C48.5973 80.9773 53.2559 64.0634 53.2836 64.0634L58.9208 72.25L55.3299 74.2609L61.2369 78.497Z" fill="#C8DCFA"/>
<path d="M62.9901 35.554C61.1192 39.4303 53.5759 39.6515 46.1412 36.0612C38.7075 32.4709 34.1976 26.4199 36.0685 22.5454C37.9405 18.6709 45.4835 18.4389 52.9172 22.0292C60.3509 25.6177 64.8609 31.6795 62.9901 35.554Z" fill="#070739"/>
<path d="M42.0564 85.7871H38.3177C38.0203 85.7871 37.7791 85.5464 37.7791 85.2488C37.7791 84.9513 38.0203 84.7105 38.3177 84.7105H41.5177V75.9258C41.5177 72.0979 38.4899 68.9832 34.7682 68.9832C31.0455 68.9832 28.0176 72.0979 28.0176 75.9258V84.7105H31.5565C31.8541 84.7105 32.0952 84.9513 32.0952 85.2488C32.0952 85.5464 31.8541 85.7871 31.5565 85.7871H27.479C27.1816 85.7871 26.9404 85.5464 26.9404 85.2488V75.9258C26.9404 71.5043 30.4516 67.9067 34.7682 67.9067C39.0837 67.9067 42.595 71.5043 42.595 75.9258V85.2488C42.595 85.5464 42.3539 85.7871 42.0564 85.7871Z" fill="#5D7192"/>
<path d="M46.9292 93H46.2109V88.9799H46.9292V93Z" fill="#C8DCFA"/>
<path d="M32.6142 85.2498C32.6142 85.8443 32.3252 86.3271 31.9682 86.3271C31.6113 86.3271 31.3213 85.8443 31.3213 85.2498C31.3213 84.6554 31.6113 84.1725 31.9682 84.1725C32.3252 84.1725 32.6142 84.6554 32.6142 85.2498Z" fill="#070739"/>
<path d="M38.6455 85.2498C38.6455 85.8443 38.3553 86.3271 37.9984 86.3271C37.6414 86.3271 37.3525 85.8443 37.3525 85.2498C37.3525 84.6554 37.6414 84.1725 37.9984 84.1725C38.3553 84.1725 38.6455 84.6554 38.6455 85.2498Z" fill="#070739"/>
<path d="M34.769 68.9834C34.4716 68.9834 34.2305 68.7424 34.2305 68.4446V61.9463C34.2305 61.6485 34.4716 61.4075 34.769 61.4075C35.0665 61.4075 35.3077 61.6485 35.3077 61.9463V68.4446C35.3077 68.7424 35.0665 68.9834 34.769 68.9834Z" fill="#5D7192"/>
<path d="M55.9536 77.8887C55.6562 77.8887 55.415 77.6477 55.415 77.3498V61.9462C55.415 61.6484 55.6562 61.4074 55.9536 61.4074C56.2511 61.4074 56.4922 61.6484 56.4922 61.9462V77.3498C56.4922 77.6477 56.2511 77.8887 55.9536 77.8887Z" fill="#5D7192"/>
<path d="M52.7207 80.5809C52.7207 78.7972 54.1677 77.3498 55.9526 77.3498C57.7375 77.3498 59.1834 78.7972 59.1834 80.5809C59.1834 82.3661 57.7375 83.8135 55.9526 83.8135C54.1677 83.8135 52.7207 82.3661 52.7207 80.5809Z" fill="#5D7192"/>
<path d="M54.7324 80.581C54.7324 79.907 55.2785 79.3598 55.9531 79.3598C56.6267 79.3598 57.1737 79.907 57.1737 80.581C57.1737 81.255 56.6267 81.8008 55.9531 81.8008C55.2785 81.8008 54.7324 81.255 54.7324 80.581Z" fill="#070739"/>
</svg>
