<svg width="25" height="24" viewBox="0 0 25 24" fill="none" xmlns="http://www.w3.org/2000/svg">
<path d="M11.9943 4.63625C7.63492 0.823334 2.09202 4.17347 2.00113 8.71512C1.97796 9.87257 2.31208 11 2.97715 12.0394H7.28792L8.05466 10.7615C8.27729 10.3905 8.81608 10.3785 9.05134 10.7484L10.6691 13.2905L13.0272 8.31234C13.2329 7.87796 13.8457 7.86417 14.0726 8.28539L16.094 12.0394H21.0115C24.6543 6.34612 17.4549 -0.139757 11.9943 4.63625Z" fill="#FFC51B"/>
<path d="M15.2285 12.9033L13.5905 9.86133L11.2742 14.7512C11.0772 15.1672 10.4975 15.2033 10.2504 14.8149L8.57203 12.1775L8.12234 12.927C8.01645 13.1035 7.82576 13.2114 7.61995 13.2114H3.9043C4.02077 13.3333 3.4 12.7138 11.5814 20.8528C11.8099 21.0802 12.1793 21.0802 12.4078 20.8528C20.4633 12.839 19.9686 13.3331 20.0849 13.2114H15.7443C15.5288 13.2115 15.3307 13.0931 15.2285 12.9033Z" fill="#FFC51B"/>
</svg>
