<svg width="16" height="16" viewBox="0 0 16 16" fill="none" xmlns="http://www.w3.org/2000/svg">
<path d="M9.52718 11.3809C9.76814 11.3809 9.96355 11.1855 9.96355 10.9445V6.58089C9.96355 6.33993 9.76814 6.14453 9.52718 6.14453C9.28622 6.14453 9.09082 6.33993 9.09082 6.58089V10.9445C9.09082 11.1855 9.28622 11.3809 9.52718 11.3809Z" fill="#5C5C5C"/>
<path d="M6.4725 11.3809C6.71346 11.3809 6.90886 11.1855 6.90886 10.9445V6.58089C6.90886 6.33993 6.71346 6.14453 6.4725 6.14453C6.23154 6.14453 6.03613 6.33993 6.03613 6.58089V10.9445C6.03613 11.1855 6.23154 11.3809 6.4725 11.3809Z" fill="#5C5C5C"/>
<path d="M9.74563 2.87273C9.98659 2.87273 10.182 2.67732 10.182 2.43636C10.182 2.1954 9.98659 2 9.74563 2H6.25472C6.01376 2 5.81836 2.1954 5.81836 2.43636C5.81836 2.67732 6.01376 2.87273 6.25472 2.87273H9.74563Z" fill="#5C5C5C"/>
<path d="M3.20004 3.30859C2.95908 3.30859 2.76367 3.504 2.76367 3.74496C2.76367 3.98592 2.95908 4.18132 3.20004 4.18132H3.6364V12.2104C3.6364 13.1966 4.43931 13.9995 5.42549 13.9995H10.5746C11.5607 13.9995 12.3637 13.1966 12.3637 12.2104V4.18132H12.8C13.041 4.18132 13.2364 3.98592 13.2364 3.74496C13.2364 3.504 13.041 3.30859 12.8 3.30859H11.9273H4.07276H3.20004ZM11.4909 4.18132V12.2104C11.4909 12.7166 11.0808 13.1268 10.5746 13.1268H5.42549C4.91931 13.1268 4.50913 12.7166 4.50913 12.2104V4.18132H11.4909Z" fill="#5C5C5C"/>
</svg>
