<svg width="24" height="20" viewBox="0 0 24 20" fill="none" xmlns="http://www.w3.org/2000/svg">
<path fill-rule="evenodd" clip-rule="evenodd" d="M12 19.8037C12.1865 19.8037 12.3653 19.7296 12.4972 19.5978L21.1757 10.9192C23.629 8.46605 23.629 4.48853 21.1757 2.03534C18.7225 -0.417902 14.745 -0.417902 12.2918 2.03534L12 2.32711L11.7083 2.03534C9.25501 -0.417902 5.27755 -0.417902 2.82431 2.03534C0.371064 4.48853 0.371062 8.46604 2.82431 10.9192C2.82431 10.9192 2.82431 10.9192 2.82431 10.9192L11.5028 19.5978C11.6347 19.7296 11.8135 19.8037 12 19.8037ZM3.32149 10.4221L3.81867 9.92487C1.91461 8.02085 1.91461 4.93373 3.81867 3.02971L3.34233 2.55336L3.81868 3.02971C5.72275 1.12564 8.80982 1.12564 10.7139 3.02971L11.5028 3.81866C11.7774 4.09325 12.2226 4.09325 12.4972 3.81866L13.2862 3.02971C15.1902 1.12564 18.2773 1.12564 20.1814 3.02971L20.6786 2.53252L20.1814 3.02971C22.0854 4.93373 22.0854 8.02085 20.1814 9.92487L20.6675 10.411L20.1814 9.92487L12 18.1062L3.81868 9.92487L3.32149 10.4221Z" fill="#908F8F"/>
<path fill-rule="evenodd" clip-rule="evenodd" d="M15.9375 10C15.9375 10.3883 16.2523 10.7031 16.6406 10.7031H23.2969C23.6852 10.7031 24 10.3883 24 10C24 9.61167 23.6852 9.29688 23.2969 9.29688H16.6406C16.2523 9.29688 15.9375 9.61167 15.9375 10Z" fill="#908F8F"/>
<path fill-rule="evenodd" clip-rule="evenodd" d="M0 10C0 10.3883 0.3148 10.7031 0.703125 10.7031H6.375C6.76332 10.7031 7.07812 10.3883 7.07812 10C7.07812 9.61167 6.76332 9.29688 6.375 9.29688H0.703125C0.3148 9.29688 0 9.61167 0 10Z" fill="#908F8F"/>
<path fill-rule="evenodd" clip-rule="evenodd" d="M6.10273 10.6481C6.46076 10.7985 6.8729 10.6301 7.02327 10.2721L8.99202 5.58459C9.14239 5.22656 8.97405 4.81442 8.61602 4.66405C8.25799 4.51368 7.84585 4.68202 7.69548 5.04005L5.72673 9.72754C5.57636 10.0856 5.7447 10.4977 6.10273 10.6481Z" fill="#908F8F"/>
<path fill-rule="evenodd" clip-rule="evenodd" d="M12.2241 12.9708C12.5705 12.7953 12.709 12.3722 12.5335 12.0258L8.97099 4.99456C8.79548 4.64816 8.37239 4.50963 8.02599 4.68514C7.67959 4.86065 7.54106 5.28374 7.71657 5.63014L11.2791 12.6614C11.4546 13.0078 11.8777 13.1463 12.2241 12.9708Z" fill="#908F8F"/>
<path fill-rule="evenodd" clip-rule="evenodd" d="M11.5568 12.9538C11.8938 13.1468 12.3234 13.03 12.5164 12.6931L15.4695 7.53683C15.6625 7.19985 15.5458 6.77023 15.2088 6.57724C14.8718 6.38425 14.4422 6.50096 14.2492 6.83794L11.2961 11.9942C11.1031 12.3312 11.2198 12.7608 11.5568 12.9538Z" fill="#908F8F"/>
<path fill-rule="evenodd" clip-rule="evenodd" d="M17.0169 10.5939C17.3449 10.3861 17.4424 9.95177 17.2347 9.6237L15.4534 6.8112C15.2456 6.48314 14.8113 6.38562 14.4832 6.5934C14.1551 6.80117 14.0576 7.23555 14.2654 7.56362L16.0466 10.3761C16.2544 10.7042 16.6888 10.8017 17.0169 10.5939Z" fill="#908F8F"/>
</svg>
